<?xml version="1.0" encoding="UTF-8" ?>
<!DOCTYPE svg PUBLIC "-//W3C//DTD SVG 1.1//EN" "http://www.w3.org/Graphics/SVG/1.1/DTD/svg11.dtd">
<svg width="218pt" height="83pt" viewBox="0 0 218 83" version="1.1" xmlns="http://www.w3.org/2000/svg">
<path fill="#fefefe" d=" M 0.00 0.00 L 218.00 0.00 L 218.00 83.00 L 0.00 83.00 L 0.00 0.00 Z" />
<path fill="#019bdb" d=" M 9.17 4.80 C 75.18 5.00 141.20 4.81 207.22 4.89 L 208.51 4.57 C 209.01 6.13 209.27 7.73 209.25 9.37 C 142.59 9.28 75.90 9.46 9.26 9.28 C 9.15 7.79 9.12 6.29 9.17 4.80 Z" />
<path fill="#37ad60" d=" M 10.28 19.40 C 13.99 19.39 18.52 18.54 21.16 21.88 C 21.51 23.57 21.70 25.32 20.98 26.95 C 20.37 27.45 19.75 27.95 19.14 28.45 C 23.24 29.04 24.76 34.92 21.34 37.32 C 17.97 39.30 13.91 38.40 10.20 38.54 C 9.62 32.48 10.20 26.11 9.83 19.94 L 10.28 19.40 Z" />
<path fill="#37ad60" d=" M 88.23 19.24 C 88.82 19.33 89.99 19.51 90.58 19.60 C 94.90 24.13 98.73 29.12 103.11 33.60 C 103.40 28.88 102.81 24.06 103.43 19.33 C 104.42 19.25 105.34 19.42 106.18 19.86 C 105.70 26.13 106.55 32.47 105.68 38.69 C 105.10 38.65 103.95 38.57 103.37 38.53 C 99.62 33.96 95.59 29.63 91.70 25.18 L 90.99 25.04 C 90.90 29.55 91.22 34.13 90.71 38.64 C 90.12 38.63 88.92 38.61 88.33 38.60 C 87.89 32.18 87.97 25.65 88.23 19.24 Z" />
<path fill="#37ad60" d=" M 165.30 19.43 C 168.83 19.30 172.37 19.41 175.91 19.39 C 175.93 20.05 175.97 21.38 175.99 22.04 C 173.34 22.09 170.69 22.01 168.05 22.08 C 168.06 23.94 168.00 25.81 168.15 27.68 C 170.80 27.69 173.48 27.48 176.12 27.81 C 176.09 28.38 176.02 29.51 175.98 30.07 C 173.37 30.32 170.74 30.13 168.12 30.18 C 168.01 32.09 168.03 34.01 168.02 35.92 C 170.75 35.98 173.48 35.93 176.22 35.95 C 176.23 36.61 176.25 37.93 176.27 38.59 C 172.58 38.38 168.81 38.84 165.18 38.39 C 165.11 32.08 164.85 25.72 165.30 19.43 Z" />
<path fill="#37ad60" d=" M 46.52 19.49 C 47.20 19.49 48.55 19.48 49.22 19.48 C 49.23 25.85 49.06 32.19 49.24 38.55 C 48.53 38.55 47.10 38.55 46.39 38.55 C 46.63 32.19 46.38 25.84 46.52 19.49 Z" />
<path fill="#37ad60" d=" M 67.95 20.88 C 71.34 18.16 77.45 20.29 76.51 25.16 C 75.63 26.65 74.66 28.12 73.15 29.04 C 73.97 30.04 74.85 30.99 75.70 31.97 C 76.64 30.10 77.80 28.06 80.30 28.82 C 80.02 30.92 78.51 32.44 77.36 34.10 C 78.77 35.30 79.95 36.78 80.76 38.45 C 79.64 38.61 78.52 38.63 77.41 38.50 C 76.73 37.70 76.07 36.89 75.44 36.05 C 72.83 38.84 66.61 40.55 64.98 35.96 C 63.20 32.87 66.50 30.19 68.69 28.48 C 67.10 26.28 65.71 23.23 67.95 20.88 Z" />
<path fill="#37ad60" d=" M 145.76 19.44 C 146.44 19.45 147.80 19.46 148.47 19.46 C 148.53 21.91 148.40 24.37 148.45 26.82 C 150.58 25.66 153.30 25.01 155.37 26.67 C 157.45 30.27 156.35 34.64 156.46 38.59 C 155.79 38.56 154.45 38.50 153.78 38.47 C 153.73 35.15 154.33 31.74 153.41 28.50 C 151.86 27.89 150.01 27.80 148.75 29.06 C 148.12 32.17 148.68 35.37 148.39 38.51 C 147.42 38.86 146.58 38.75 145.87 38.18 C 145.74 31.93 145.95 25.69 145.76 19.44 Z" />
<path fill="#fefefe" d=" M 13.14 22.22 C 14.93 22.04 17.81 21.62 18.45 23.86 C 19.32 27.00 15.48 28.07 13.11 27.59 C 13.32 25.81 12.59 23.93 13.14 22.22 Z" />
<path fill="#fefefe" d=" M 70.37 22.50 C 71.39 22.25 72.35 22.34 73.26 22.78 C 74.40 24.53 73.06 26.34 71.40 27.00 C 69.96 25.96 69.16 24.01 70.37 22.50 Z" />
<path fill="#37ad60" d=" M 36.05 28.08 C 36.41 25.87 38.74 24.78 40.35 23.54 C 40.34 24.12 40.33 25.29 40.32 25.87 C 41.65 25.88 42.97 25.88 44.29 25.87 C 44.27 26.47 44.23 27.66 44.21 28.26 C 42.93 28.23 41.65 28.24 40.37 28.29 C 40.86 31.01 38.82 35.25 42.04 36.64 C 42.84 36.17 43.67 35.74 44.51 35.36 C 45.14 36.41 45.12 37.42 44.46 38.40 C 42.06 39.02 39.08 39.02 37.75 36.54 C 37.64 33.89 37.62 31.24 37.78 28.59 C 37.35 28.46 36.48 28.21 36.05 28.08 Z" />
<path fill="#37ad60" d=" M 134.92 27.37 C 136.50 26.28 137.93 25.02 139.14 23.53 C 139.33 24.13 139.71 25.31 139.90 25.91 C 140.71 25.88 142.33 25.82 143.14 25.79 C 143.93 26.59 143.97 27.44 143.27 28.33 C 142.47 28.30 140.87 28.25 140.06 28.23 C 139.43 30.73 139.13 34.28 140.80 36.55 C 141.67 36.30 143.39 35.78 144.26 35.52 C 145.38 39.07 141.01 39.10 138.71 38.38 C 135.57 36.01 137.72 31.50 136.66 28.38 C 136.22 28.13 135.35 27.63 134.92 27.37 Z" />
<path fill="#37ad60" d=" M 50.45 25.73 C 52.39 25.83 54.86 25.18 56.21 27.08 C 58.05 30.59 56.79 34.75 57.21 38.55 C 56.55 38.54 55.21 38.52 54.54 38.51 C 54.10 35.16 55.41 31.49 53.81 28.35 C 52.25 28.18 51.23 26.96 50.45 25.73 Z" />
<path fill="#37ad60" d=" M 128.29 27.90 C 129.37 25.31 132.49 25.15 134.45 26.83 C 134.60 30.13 131.65 28.26 129.92 28.28 C 126.28 30.40 128.72 35.28 127.62 38.58 C 127.03 38.60 125.83 38.64 125.23 38.66 C 124.77 35.81 125.20 32.91 125.13 30.04 C 125.22 28.55 124.61 26.78 125.72 25.53 C 126.22 25.70 127.22 26.06 127.72 26.24 L 128.29 27.90 Z" />
<path fill="#37ad60" d=" M 199.93 28.17 C 200.58 26.38 202.37 24.21 204.38 24.12 C 204.41 24.59 204.46 25.52 204.49 25.99 C 205.83 25.94 208.08 25.10 208.57 26.98 C 208.22 29.14 205.84 28.08 204.37 28.23 C 205.02 30.87 203.21 34.65 205.73 36.45 C 206.56 36.20 208.24 35.71 209.07 35.46 C 210.69 40.01 202.33 39.80 201.81 36.04 C 202.01 33.45 201.56 30.87 201.87 28.29 C 201.39 28.26 200.42 28.20 199.93 28.17 Z" />
<path fill="#37ad60" d=" M 24.63 26.89 C 26.76 25.56 29.52 25.35 31.87 26.18 C 34.34 28.97 33.31 33.02 33.35 36.40 C 33.86 36.51 34.89 36.73 35.40 36.84 C 35.58 39.50 32.11 38.14 30.92 38.89 C 30.85 36.68 30.70 34.47 30.74 32.26 C 29.21 33.28 26.76 33.82 26.98 36.14 C 28.36 36.55 29.71 37.05 30.81 38.00 C 29.17 38.51 27.33 39.48 25.71 38.34 C 24.11 37.25 23.88 34.81 25.07 33.29 C 26.80 32.02 28.98 31.65 30.85 30.65 C 31.02 26.71 26.36 28.29 24.55 29.94 C 24.57 28.92 24.60 27.90 24.63 26.89 Z" />
<path fill="#37ad60" d=" M 112.28 26.44 C 115.64 24.57 120.99 26.02 122.03 29.98 C 123.33 33.27 121.57 37.72 117.89 38.41 C 113.79 40.10 108.30 36.68 108.91 32.00 C 108.70 29.69 110.20 27.36 112.28 26.44 Z" />
<path fill="#37ad60" d=" M 177.75 27.13 C 180.16 25.15 183.58 25.29 186.16 26.83 C 187.42 29.81 186.51 33.06 186.95 36.16 C 187.37 36.61 188.22 37.52 188.64 37.98 C 188.01 38.20 186.73 38.65 186.09 38.88 C 185.58 38.66 184.55 38.21 184.04 37.99 C 182.31 38.60 180.51 39.14 178.75 38.34 C 175.96 35.48 178.87 31.84 182.18 31.41 C 182.30 31.74 182.54 32.41 182.66 32.75 C 182.16 32.94 181.16 33.33 180.65 33.52 C 180.64 34.47 180.63 35.41 180.63 36.36 C 181.60 36.73 182.63 36.85 183.72 36.71 C 183.78 35.90 183.88 34.27 183.94 33.46 L 185.17 33.38 C 184.67 32.02 182.84 30.78 184.05 29.20 C 182.40 26.76 179.75 29.04 177.95 29.99 C 177.90 29.28 177.80 27.85 177.75 27.13 Z" />
<path fill="#37ad60" d=" M 190.29 28.07 C 191.24 24.93 195.35 25.40 197.76 26.32 C 197.85 27.04 198.02 28.48 198.11 29.20 C 196.55 28.32 194.76 27.81 192.98 28.25 C 193.33 31.60 198.64 31.43 198.82 35.14 C 198.41 39.33 193.29 39.24 190.29 37.98 C 190.18 37.23 189.97 35.74 189.86 34.99 C 191.82 35.19 193.95 37.64 195.66 35.73 C 196.50 34.50 194.60 33.65 193.71 33.28 C 191.92 32.21 189.20 30.55 190.29 28.07 Z" />
<path fill="#fefefe" d=" M 114.26 28.31 C 116.23 27.45 118.10 28.80 119.42 30.13 C 120.76 33.22 118.45 36.84 114.99 36.34 C 110.94 36.01 110.33 29.23 114.26 28.31 Z" />
<path fill="#fefefe" d=" M 13.05 30.24 C 16.09 29.56 21.76 30.27 19.85 34.76 C 17.80 36.20 15.26 35.99 12.90 35.76 C 12.93 33.92 13.00 32.08 13.05 30.24 Z" />
<path fill="#fefefe" d=" M 70.51 30.53 C 71.60 31.61 72.57 32.80 73.51 34.01 C 72.09 35.45 70.32 36.38 68.25 35.86 C 68.00 35.40 67.51 34.48 67.27 34.02 C 67.81 32.42 69.20 31.47 70.51 30.53 Z" />
<path fill="#37ad60" d=" M 11.04 46.05 C 13.99 44.29 21.20 44.54 19.10 49.73 C 17.36 47.87 14.54 47.18 12.22 48.35 C 12.17 49.03 12.06 50.37 12.00 51.04 C 14.40 53.47 18.92 54.21 19.68 58.02 C 20.75 60.15 19.19 62.38 17.83 63.96 C 15.18 65.13 12.11 64.78 9.61 63.39 C 8.52 62.10 9.42 60.72 9.51 59.28 C 10.71 61.76 15.00 63.22 16.83 60.88 C 17.89 56.32 11.62 55.69 9.43 52.72 C 8.80 50.43 8.65 47.37 11.04 46.05 Z" />
<path fill="#37ad60" d=" M 126.24 49.26 C 129.59 44.31 136.56 44.35 141.59 46.50 C 141.62 47.52 141.57 48.54 141.47 49.55 C 139.04 48.79 136.68 47.27 133.97 47.92 C 128.86 48.10 125.75 54.30 128.31 58.69 C 129.83 59.76 130.89 61.67 132.94 61.74 C 136.00 62.72 138.77 60.99 141.59 60.13 C 141.63 60.79 141.71 62.10 141.76 62.76 C 138.62 65.15 133.94 65.07 130.25 63.88 C 124.64 61.75 122.69 53.99 126.24 49.26 Z" />
<path fill="#37ad60" d=" M 206.32 45.39 C 206.92 45.37 208.12 45.33 208.72 45.32 C 209.27 51.50 208.90 57.74 208.96 63.94 C 208.23 64.44 207.39 64.61 206.44 64.45 C 205.98 58.19 206.11 51.68 206.32 45.39 Z" />
<path fill="#37ad60" d=" M 200.01 47.04 C 200.75 46.66 201.57 46.54 202.45 46.66 C 203.11 47.63 203.12 48.60 202.49 49.55 C 200.72 49.92 199.30 48.99 200.01 47.04 Z" />
<path fill="#37ad60" d=" M 106.13 53.55 C 107.75 52.56 108.72 50.40 110.62 50.02 C 110.61 53.07 113.16 51.21 114.84 51.89 C 114.77 52.47 114.65 53.64 114.58 54.23 C 113.34 54.10 112.12 54.19 110.94 54.49 C 110.93 56.92 110.59 59.44 111.29 61.80 C 112.70 62.09 114.10 61.71 115.50 61.57 C 115.69 62.48 115.61 63.31 115.27 64.09 C 112.87 65.09 108.99 65.02 108.30 61.91 C 108.09 59.53 108.23 57.12 108.17 54.73 C 107.66 54.44 106.64 53.85 106.13 53.55 Z" />
<path fill="#37ad60" d=" M 76.62 52.98 C 77.45 50.97 79.58 51.68 81.24 51.87 C 81.97 52.94 81.97 54.29 80.89 55.15 C 79.62 54.42 77.25 53.21 76.39 55.15 C 74.56 57.82 76.01 61.38 75.47 64.42 C 74.59 64.42 73.72 64.36 72.85 64.26 C 72.91 60.17 72.79 56.07 72.97 51.97 C 74.36 51.34 75.46 52.48 76.62 52.98 Z" />
<path fill="#37ad60" d=" M 83.17 55.93 C 81.76 50.90 91.70 49.57 91.33 54.61 C 89.55 55.06 87.82 53.29 85.98 54.28 C 86.34 57.49 92.02 57.34 91.67 60.99 C 92.38 65.96 81.63 66.15 83.23 61.09 C 85.09 61.37 88.29 63.86 88.97 61.00 C 87.56 59.02 84.38 58.45 83.17 55.93 Z" />
<path fill="#37ad60" d=" M 24.34 52.58 C 26.85 51.56 30.07 50.87 32.41 52.64 C 36.21 54.83 36.26 61.33 32.45 63.55 C 29.17 65.78 23.70 64.78 22.24 60.78 C 20.84 57.89 21.99 54.58 24.34 52.58 Z" />
<path fill="#37ad60" d=" M 37.77 51.86 C 38.91 51.52 39.91 51.82 40.78 52.76 C 42.45 51.62 44.84 50.86 46.51 52.44 C 48.73 54.06 50.60 50.43 53.07 51.62 C 58.04 53.62 55.40 59.99 56.18 64.07 C 55.36 64.48 54.45 64.55 53.45 64.28 C 53.15 61.22 53.86 58.02 53.08 55.04 C 52.06 53.08 49.59 54.04 48.28 55.20 C 48.03 58.20 48.27 61.22 48.16 64.22 C 47.33 64.48 46.47 64.50 45.58 64.27 C 45.45 61.03 45.93 57.73 45.25 54.53 C 43.69 53.70 41.50 53.79 40.39 55.30 C 40.33 58.32 40.49 61.35 40.32 64.38 C 39.67 64.35 38.37 64.29 37.73 64.26 C 37.87 60.13 37.65 55.99 37.77 51.86 Z" />
<path fill="#37ad60" d=" M 59.03 60.14 C 57.60 56.26 60.43 50.72 65.04 51.61 C 68.78 51.39 70.37 55.39 70.38 58.54 C 67.35 58.69 64.31 58.35 61.29 58.68 C 61.62 59.37 62.28 60.76 62.61 61.45 C 65.05 62.44 67.75 62.00 70.03 60.81 C 70.88 62.92 68.75 64.50 66.85 64.49 C 63.70 65.34 59.48 63.68 59.03 60.14 Z" />
<path fill="#37ad60" d=" M 99.15 64.66 C 92.77 64.11 91.81 53.55 97.95 51.79 C 102.16 50.27 106.14 54.42 105.36 58.56 C 102.40 58.77 99.35 58.22 96.44 58.84 C 97.23 63.04 102.06 62.11 105.05 60.99 C 106.30 64.38 101.39 64.86 99.15 64.66 Z" />
<path fill="#37ad60" d=" M 147.24 52.32 C 149.76 51.05 152.79 51.40 155.13 52.90 C 158.01 55.46 158.28 60.71 155.16 63.17 C 152.04 65.67 146.58 65.16 144.62 61.43 C 142.99 58.40 143.79 53.72 147.24 52.32 Z" />
<path fill="#37ad60" d=" M 160.03 51.90 C 160.65 51.95 161.91 52.04 162.54 52.09 C 162.64 55.05 162.37 58.03 162.66 60.98 C 163.61 63.46 167.84 62.50 167.94 59.99 C 167.90 57.32 167.91 54.64 168.02 51.97 C 169.62 51.09 171.10 52.19 170.53 53.93 C 170.67 57.39 170.73 60.85 170.60 64.31 C 169.38 64.46 167.98 64.90 167.65 63.28 C 165.47 65.49 161.08 65.06 160.15 61.82 C 159.71 58.57 159.79 55.19 160.03 51.90 Z" />
<path fill="#37ad60" d=" M 173.85 51.93 L 175.11 51.71 C 177.18 54.02 179.63 50.18 181.88 51.87 C 184.09 52.49 184.69 54.92 184.63 56.94 C 184.47 59.41 184.72 61.88 184.55 64.34 C 183.57 64.36 182.59 64.38 181.62 64.38 C 182.12 61.46 182.10 58.27 181.62 55.35 C 180.95 52.37 175.76 54.11 176.52 56.86 C 176.39 59.35 176.81 61.92 176.33 64.37 C 175.48 64.60 174.68 64.52 173.92 64.11 C 173.87 60.05 173.97 55.99 173.85 51.93 Z" />
<path fill="#37ad60" d=" M 189.03 52.91 C 191.43 51.42 197.15 50.18 197.39 54.27 C 195.78 55.36 193.41 53.12 191.51 54.51 C 189.40 56.43 189.29 60.55 192.13 61.83 C 193.87 62.17 195.63 61.78 197.36 61.58 C 197.54 62.55 198.06 64.39 196.40 64.29 C 193.35 65.24 188.99 64.58 187.85 61.16 C 186.58 58.45 187.38 55.27 189.03 52.91 Z" />
<path fill="#37ad60" d=" M 200.15 51.95 C 200.80 51.93 202.09 51.90 202.73 51.89 C 202.86 55.62 202.80 59.37 202.84 63.12 C 203.39 64.87 201.24 64.27 200.34 64.49 C 199.88 60.39 200.12 56.10 200.15 51.95 Z" />
<path fill="#fefefe" d=" M 24.42 56.80 C 25.45 54.58 28.19 53.14 30.45 54.55 C 33.10 55.71 32.95 59.28 31.33 61.29 C 30.78 61.55 29.66 62.09 29.10 62.35 C 25.92 62.57 23.80 59.86 24.42 56.80 Z" />
<path fill="#fefefe" d=" M 61.34 56.67 C 61.91 54.44 63.92 53.72 66.08 54.06 C 66.97 54.67 67.19 55.82 67.73 56.69 C 65.61 56.91 63.46 56.81 61.34 56.67 Z" />
<path fill="#fefefe" d=" M 97.65 54.57 C 99.73 53.23 102.35 54.14 102.91 56.58 C 100.77 57.01 98.59 56.79 96.43 56.75 C 96.84 56.03 97.25 55.30 97.65 54.57 Z" />
<path fill="#fefefe" d=" M 146.68 56.89 C 147.63 53.17 152.85 53.28 154.49 56.39 C 154.97 58.21 154.55 59.94 153.38 61.39 C 150.22 63.93 145.38 60.78 146.68 56.89 Z" />
<path fill="#019bdb" d=" M 9.10 74.63 C 70.39 74.85 131.69 74.66 192.98 74.73 C 198.15 74.61 203.36 74.96 208.51 74.54 C 209.55 75.90 209.03 77.64 209.17 79.22 C 142.52 79.32 75.85 79.15 9.20 79.30 C 9.11 77.74 9.07 76.19 9.10 74.63 Z" />
</svg>
